<svg xmlns="http://www.w3.org/2000/svg" viewBox="0 0 512 512"><path fill="#e37500" d="M336.214 389.987h75.261v86.34h-75.261z"/><path fill="#0a0" d="M512 413.206H235.701l57.836-81.448H251.42l49.979-70.372h-37.047l109.503-154.213 109.502 154.213H446.31l49.972 70.372h-42.117z"/><path fill="#974c00" d="M373.859 389.987h37.628v86.34h-37.628z"/><path fill="green" d="M512 413.206H373.855V107.173l109.502 154.213H446.31l49.972 70.372h-42.117z"/><path fill="#e37500" d="M130.106 383.155h97.419v111.754h-97.419z"/><path fill="#0a0" d="M357.631 413.208H0l74.86-105.423H20.345l64.693-91.088H37.084L178.82 17.091l141.737 199.606h-47.954l64.683 91.088h-54.515z"/><path fill="#974c00" d="M178.82 383.155h48.705v111.754H178.82z"/><path fill="green" d="M357.631 413.208H178.82V17.091l141.737 199.606h-47.954l64.683 91.088h-54.515z"/></svg>